<mxfile host="app.diagrams.net" agent="Mozilla/5.0 (Windows NT 10.0; Win64; x64) AppleWebKit/537.36 (KHTML, like Gecko) Chrome/131.0.0.0 Safari/537.36" version="25.0.3">
  <diagram name="Página-1" id="_5f8tvsa87FToMD1ps_g">
    <mxGraphModel dx="526" dy="400" grid="1" gridSize="10" guides="1" tooltips="1" connect="1" arrows="1" fold="1" page="1" pageScale="1" pageWidth="827" pageHeight="1169" math="0" shadow="0">
      <root>
        <mxCell id="0" />
        <mxCell id="1" parent="0" />
        <mxCell id="GCByB-QEDTP5D-FnCHaX-3" value="" style="edgeStyle=orthogonalEdgeStyle;rounded=0;orthogonalLoop=1;jettySize=auto;html=1;" edge="1" parent="1" source="GCByB-QEDTP5D-FnCHaX-1" target="GCByB-QEDTP5D-FnCHaX-2">
          <mxGeometry relative="1" as="geometry" />
        </mxCell>
        <mxCell id="GCByB-QEDTP5D-FnCHaX-1" value="Inicio" style="ellipse;whiteSpace=wrap;html=1;aspect=fixed;" vertex="1" parent="1">
          <mxGeometry x="370" y="180" width="80" height="80" as="geometry" />
        </mxCell>
        <mxCell id="GCByB-QEDTP5D-FnCHaX-18" value="" style="edgeStyle=orthogonalEdgeStyle;rounded=0;orthogonalLoop=1;jettySize=auto;html=1;" edge="1" parent="1" source="GCByB-QEDTP5D-FnCHaX-2" target="GCByB-QEDTP5D-FnCHaX-17">
          <mxGeometry relative="1" as="geometry" />
        </mxCell>
        <mxCell id="GCByB-QEDTP5D-FnCHaX-2" value="&lt;div style=&quot;&quot;&gt;&lt;span style=&quot;font-size: 11px;&quot;&gt;&lt;br&gt;&lt;/span&gt;&lt;/div&gt;&lt;font style=&quot;font-size: 11px;&quot;&gt;&lt;div style=&quot;&quot;&gt;&lt;span style=&quot;color: rgb(26, 26, 26); background-color: initial;&quot;&gt;Mostrar mensaje: &quot;Por favor, ingrese una pal&lt;/span&gt;&lt;span style=&quot;color: rgb(26, 26, 26); background-color: initial;&quot; class=&quot;ql-cursor&quot;&gt;﻿&lt;/span&gt;&lt;span style=&quot;color: rgb(26, 26, 26); background-color: initial;&quot;&gt;abra: &quot;&lt;/span&gt;&lt;/div&gt;&lt;/font&gt;&lt;div style=&quot;&quot;&gt;&lt;br&gt;&lt;/div&gt;" style="shape=parallelogram;perimeter=parallelogramPerimeter;whiteSpace=wrap;html=1;fixedSize=1;align=center;fillColor=#fff2cc;strokeColor=#d6b656;" vertex="1" parent="1">
          <mxGeometry x="320" y="290" width="180" height="110" as="geometry" />
        </mxCell>
        <mxCell id="GCByB-QEDTP5D-FnCHaX-13" value="" style="edgeStyle=orthogonalEdgeStyle;rounded=0;orthogonalLoop=1;jettySize=auto;html=1;" edge="1" parent="1" source="GCByB-QEDTP5D-FnCHaX-10" target="GCByB-QEDTP5D-FnCHaX-12">
          <mxGeometry relative="1" as="geometry" />
        </mxCell>
        <mxCell id="GCByB-QEDTP5D-FnCHaX-10" value="&lt;span style=&quot;color: rgb(26, 26, 26);&quot;&gt;Mostrar mensaje: &quot;La palabra ingresada tiene &quot;, cantidad_letras, &quot; letras.&quot;&lt;/span&gt;" style="shape=parallelogram;perimeter=parallelogramPerimeter;whiteSpace=wrap;html=1;fixedSize=1;fillColor=#fff2cc;strokeColor=#d6b656;" vertex="1" parent="1">
          <mxGeometry x="290" y="570" width="240" height="130" as="geometry" />
        </mxCell>
        <mxCell id="GCByB-QEDTP5D-FnCHaX-12" value="Fin" style="ellipse;whiteSpace=wrap;html=1;" vertex="1" parent="1">
          <mxGeometry x="370" y="760" width="80" height="80" as="geometry" />
        </mxCell>
        <mxCell id="GCByB-QEDTP5D-FnCHaX-19" value="" style="edgeStyle=orthogonalEdgeStyle;rounded=0;orthogonalLoop=1;jettySize=auto;html=1;" edge="1" parent="1" source="GCByB-QEDTP5D-FnCHaX-17" target="GCByB-QEDTP5D-FnCHaX-10">
          <mxGeometry relative="1" as="geometry" />
        </mxCell>
        <mxCell id="GCByB-QEDTP5D-FnCHaX-17" value="&lt;span style=&quot;color: rgb(26, 26, 26);&quot;&gt;Definir la variable cantidad_letras y asignarle la longitud de palabra_ingresada&lt;/span&gt;" style="rounded=1;whiteSpace=wrap;html=1;fillColor=#dae8fc;strokeColor=#6c8ebf;" vertex="1" parent="1">
          <mxGeometry x="320" y="430" width="180" height="100" as="geometry" />
        </mxCell>
      </root>
    </mxGraphModel>
  </diagram>
</mxfile>
